<svg width="32.000000" height="32.000000" viewBox="0 0 32 32" fill="none" xmlns="http://www.w3.org/2000/svg" xmlns:xlink="http://www.w3.org/1999/xlink">
	<desc>
			Created with Pixso.
	</desc>
	<defs/>
	<path id="Path 2104" d="M30.667 0L1.33398 0C1.15918 0 0.985352 0.0351562 0.823242 0.101562C0.662109 0.167969 0.514648 0.265625 0.390625 0.390625C0.266602 0.513672 0.168945 0.660156 0.101562 0.822266C0.0341797 0.984375 0 1.1582 0 1.33203L0 30.668C0 30.8418 0.0341797 31.0156 0.101562 31.1777C0.168945 31.3398 0.266602 31.4863 0.390625 31.6094C0.514648 31.7344 0.662109 31.832 0.823242 31.8984C0.985352 31.9648 1.15918 32 1.33398 32L17 32L17 20L13 20L13 15L17 15L17 11C17 6.86719 19.6172 4.83203 23.2998 4.83203C24.5449 4.82812 25.7881 4.89258 27.0264 5.02344L27.0264 9.34375L24.4727 9.34375C22.4678 9.34375 22 10.3008 22 11.6953L22 15L27 15L26 20L22 20L22.0801 32L30.667 32C31.0205 32 31.3594 31.8594 31.6094 31.6094C31.8594 31.3594 32 31.0215 32 30.668L32 1.33203C32 0.978516 31.8594 0.640625 31.6094 0.390625C31.3594 0.140625 31.0205 0 30.667 0Z" fill="#FFFFFF" fill-opacity="1.000000" fill-rule="evenodd"/>
</svg>
