<svg width="32.000000" height="32.042969" viewBox="0 0 32 32.043" fill="none" xmlns="http://www.w3.org/2000/svg" xmlns:xlink="http://www.w3.org/1999/xlink">
	<desc>
			Created with Pixso.
	</desc>
	<defs/>
	<path id="Exclusion 2" d="M16.1631 32.043L16.1416 32.043C15.8574 32.043 13.9492 32.0254 1.33398 32.002C0.980469 32.002 0.640625 31.8613 0.390625 31.6113C0.140625 31.3594 0 31.0215 0 30.668L0 1.33203C0.000976562 0.978516 0.141602 0.640625 0.391602 0.390625C0.641602 0.140625 0.980469 0 1.33398 0L30.667 0C31.0205 0 31.3594 0.140625 31.6094 0.390625C31.8594 0.640625 32 0.980469 32 1.33203L32 30.668C31.999 31.0195 31.8584 31.3594 31.6094 31.6094C31.3594 31.8594 31.0205 32 30.667 32C18.2402 32.0234 16.4395 32.0371 16.1826 32.041L16.1631 32.043ZM16.5 6C13.7158 6.00391 11.0469 7.11133 9.0791 9.07812C7.11035 11.0469 6.00293 13.7168 6 16.5C6.00293 19.2832 7.11035 21.9531 9.0791 23.9219C11.0469 25.8887 13.7158 26.9961 16.5 27C19.2842 26.9961 21.9531 25.8887 23.9209 23.9219C25.8896 21.9531 26.9971 19.2832 27 16.5C26.9971 13.7168 25.8896 11.0469 23.9209 9.07812C21.9531 7.11133 19.2842 6.00391 16.5 6ZM27.5 2C26.8369 2 26.2012 2.26367 25.7324 2.73242C25.2637 3.20117 25 3.83789 25 4.5C25 5.16211 25.2637 5.79883 25.7324 6.26758C26.2012 6.73633 26.8369 7 27.5 7C27.8281 7 28.1533 6.93555 28.457 6.81055C28.7598 6.68359 29.0361 6.5 29.2676 6.26758C29.5 6.03516 29.6836 5.75977 29.8096 5.45703C29.9355 5.1543 30 4.82812 30 4.5C30 3.83789 29.7363 3.20117 29.2676 2.73242C28.7988 2.26367 28.1631 2 27.5 2ZM16.5 23C14.7764 22.998 13.125 22.3125 11.9062 21.0938C10.6875 19.875 10.002 18.2227 10 16.5C10.002 14.7773 10.6875 13.125 11.9062 11.9062C13.124 10.6875 14.7764 10.002 16.5 10C18.2236 10.002 19.876 10.6875 21.0938 11.9062C22.3125 13.125 22.998 14.7773 23 16.5C22.998 18.2227 22.3125 19.875 21.0938 21.0938C19.875 22.3125 18.2236 22.998 16.5 23Z" fill="#FFFFFF" fill-opacity="1.000000" fill-rule="nonzero"/>
</svg>
